<svg width="47" height="48" viewBox="0 0 47 48" fill="none" xmlns="http://www.w3.org/2000/svg">
<g clip-path="url(#clip0_361_251)">
<path d="M1.91833 2H9.59167L14.7328 28.78C14.9082 29.7008 15.3887 30.5279 16.0901 31.1166C16.7915 31.7053 17.6692 32.018 18.5695 32H37.2157C38.1159 32.018 38.9936 31.7053 39.695 31.1166C40.3964 30.5279 40.8769 29.7008 41.0523 28.78L44.1217 12H11.51M19.1833 42C19.1833 43.1046 18.3245 44 17.265 44C16.2055 44 15.3467 43.1046 15.3467 42C15.3467 40.8954 16.2055 40 17.265 40C18.3245 40 19.1833 40.8954 19.1833 42ZM40.285 42C40.285 43.1046 39.4261 44 38.3667 44C37.3072 44 36.4483 43.1046 36.4483 42C36.4483 40.8954 37.3072 40 38.3667 40C39.4261 40 40.285 40.8954 40.285 42Z" stroke="#FFA065" stroke-width="4" stroke-linecap="round" stroke-linejoin="round"/>
</g>
<defs>
<clipPath id="clip0_361_251">
<rect width="46.04" height="48" fill="white"/>
</clipPath>
</defs>
</svg>
